<?xml version="1.0" standalone="no"?>
<!DOCTYPE svg PUBLIC "-//W3C//DTD SVG 20010904//EN"
 "http://www.w3.org/TR/2001/REC-SVG-20010904/DTD/svg10.dtd">
<svg version="1.0" xmlns="http://www.w3.org/2000/svg"
 width="1280.000000pt" height="1280.000000pt" viewBox="0 0 1280.000000 1280.000000"
 preserveAspectRatio="xMidYMid meet">
<metadata>
Created by potrace 1.14, written by Peter Selinger 2001-2017
</metadata>
<g transform="translate(0.000000,1280.000000) scale(0.100000,-0.100000)"
fill="#000000" stroke="none">
<path d="M4959 10716 c-2 -2 -49 -7 -104 -11 -140 -11 -170 -13 -170 -15 0 -2
-20 -5 -95 -14 -48 -5 -94 -13 -192 -30 -69 -12 -188 -38 -218 -46 -19 -6 -46
-12 -60 -14 -46 -7 -225 -58 -236 -67 -6 -5 -13 -6 -17 -3 -3 3 -30 -3 -60
-14 -30 -12 -58 -18 -61 -15 -3 4 -6 0 -6 -7 0 -7 -3 -11 -6 -7 -3 3 -63 -15
-133 -39 -69 -25 -130 -47 -136 -48 -10 -3 -30 -11 -90 -37 -16 -7 -32 -13
-35 -14 -32 -8 -78 -26 -175 -71 -33 -15 -66 -27 -72 -27 -7 0 -13 -4 -13 -8
0 -6 -20 -14 -56 -24 -17 -4 -452 -221 -524 -261 -36 -19 -136 -77 -224 -127
-87 -51 -181 -105 -210 -121 -28 -16 -53 -32 -56 -36 -3 -4 -27 -20 -55 -35
-27 -16 -51 -33 -53 -37 -2 -4 -8 -8 -13 -8 -8 0 -238 -150 -414 -270 -55 -38
-56 -39 -101 -75 -18 -14 -34 -25 -38 -25 -3 0 -43 -28 -88 -63 -46 -34 -95
-70 -109 -79 -14 -9 -32 -23 -40 -30 -8 -8 -36 -29 -63 -48 -27 -19 -59 -43
-70 -52 -44 -37 -171 -135 -251 -196 -27 -20 -54 -42 -60 -48 -5 -6 -35 -30
-65 -55 -30 -24 -57 -46 -60 -49 -3 -3 -41 -34 -85 -70 -44 -35 -85 -69 -91
-75 -6 -5 -30 -26 -54 -45 -23 -19 -52 -44 -64 -55 -13 -11 -45 -39 -72 -62
-133 -113 -131 -110 -108 -130 35 -31 103 -83 109 -83 3 0 19 -12 36 -27 17
-16 36 -30 42 -33 7 -3 50 -30 97 -61 100 -66 268 -156 360 -193 36 -15 74
-31 85 -36 40 -17 110 -42 128 -46 10 -2 27 -6 37 -9 10 -3 27 -8 37 -10 90
-20 166 -36 195 -40 87 -14 291 -20 308 -10 6 3 10 1 10 -5 0 -6 4 -8 10 -5 5
3 36 8 67 10 59 5 98 10 143 20 14 3 43 8 65 11 37 6 221 57 255 71 8 3 18 7
23 8 4 2 9 4 12 5 3 1 8 3 13 5 8 2 19 6 107 43 77 31 260 123 350 175 69 39
315 196 325 207 3 3 19 14 35 24 36 23 327 238 371 275 17 14 40 33 50 41 51
39 120 95 124 100 3 3 25 21 50 40 25 19 50 39 56 45 7 5 29 24 49 40 21 17
43 35 49 40 6 6 34 28 61 50 28 22 52 42 55 45 5 5 106 88 125 103 6 4 21 17
36 30 14 12 42 36 63 52 22 17 44 35 50 40 6 6 47 40 91 75 44 36 82 67 85 70
10 10 106 86 145 115 22 16 46 35 53 42 8 7 30 26 50 41 21 15 41 33 45 39 4
7 12 13 17 13 11 0 183 130 188 142 2 5 8 8 13 8 8 0 115 75 156 110 7 5 24
15 38 22 14 6 25 15 25 20 0 4 6 8 14 8 8 0 16 4 18 9 7 20 384 256 553 347
50 26 93 52 96 57 3 5 9 8 12 8 4 0 73 31 154 70 138 66 169 81 233 107 14 6
45 20 70 30 52 23 158 62 180 68 46 11 138 49 135 55 -3 4 -22 10 -42 14 -21
4 -44 11 -50 17 -7 6 -13 8 -13 4 0 -3 -12 -1 -27 5 -16 6 -38 13 -51 15 -13
3 -69 16 -125 30 -56 14 -118 27 -137 30 -19 3 -46 7 -60 10 -35 7 -148 24
-195 30 -22 2 -56 7 -75 10 -19 3 -55 7 -80 10 -57 5 -596 14 -601 10z m-3186
-1942 c62 -32 138 -110 161 -166 10 -24 22 -50 26 -59 4 -8 7 -56 6 -105 -1
-76 -6 -98 -30 -149 -35 -71 -101 -136 -176 -173 -48 -24 -67 -27 -150 -27
-83 0 -102 3 -150 27 -30 15 -72 42 -92 60 -42 38 -98 123 -98 150 0 10 -4 18
-9 18 -6 0 -10 8 -10 18 0 9 0 45 -1 79 -3 108 33 190 119 271 107 100 271
123 404 56z"/>
<path d="M7398 9975 c-2 -2 -41 -6 -88 -10 -101 -7 -123 -10 -275 -31 -22 -3
-53 -7 -70 -9 -16 -2 -30 -4 -30 -5 0 -1 -11 -3 -25 -6 -14 -2 -56 -11 -95
-20 -38 -8 -81 -17 -94 -20 -149 -32 -566 -161 -596 -184 -5 -5 -19 -10 -30
-12 -11 -1 -22 -5 -25 -8 -3 -3 -32 -16 -65 -29 -97 -38 -569 -274 -585 -292
-3 -3 -12 -8 -20 -12 -8 -4 -32 -17 -52 -29 -20 -13 -71 -43 -112 -68 -42 -25
-76 -48 -76 -52 0 -5 -5 -8 -11 -8 -6 0 -47 -25 -91 -55 -44 -30 -83 -55 -86
-55 -4 0 -19 -11 -34 -25 -15 -14 -29 -25 -32 -25 -6 0 -97 -61 -106 -70 -3
-3 -39 -30 -80 -60 -60 -44 -298 -225 -345 -262 -5 -5 -50 -40 -100 -79 -49
-39 -92 -74 -95 -78 -3 -4 -21 -18 -40 -31 -19 -13 -40 -29 -46 -35 -15 -14
-90 -77 -144 -121 -25 -20 -63 -51 -85 -69 -22 -19 -83 -69 -136 -112 -53 -43
-103 -85 -112 -93 -9 -8 -22 -20 -29 -25 -7 -6 -92 -73 -188 -150 -214 -172
-258 -205 -418 -322 -70 -51 -132 -97 -139 -102 -7 -6 -15 -11 -18 -11 -6 0
-66 -41 -75 -51 -9 -11 -192 -122 -293 -178 -153 -85 -420 -205 -431 -193 -3
3 -6 1 -6 -5 0 -5 -6 -10 -12 -10 -12 0 -144 -37 -178 -50 -8 -3 -22 -7 -30
-8 -26 -4 -84 -15 -115 -22 -156 -33 -434 -33 -590 0 -16 4 -45 9 -64 12 -19
3 -37 8 -41 10 -4 2 -21 7 -40 10 -18 3 -64 17 -104 31 -39 14 -75 27 -81 28
-65 18 -298 131 -375 183 -19 12 -38 23 -43 23 -4 0 -13 5 -20 10 -7 6 -69 50
-140 100 -123 86 -140 99 -173 129 -13 12 -15 -68 -14 -714 1 -400 5 -737 9
-749 5 -11 14 -43 20 -70 28 -118 90 -203 201 -277 36 -23 67 -46 68 -51 2 -4
7 -8 12 -8 4 0 37 -18 73 -40 184 -111 512 -244 652 -264 25 -4 80 -14 120
-22 64 -14 390 -13 475 1 248 40 418 96 668 216 189 92 469 261 613 372 20 15
38 27 42 27 3 0 16 9 29 20 34 29 288 223 307 235 9 6 18 12 21 15 3 3 30 25
60 50 30 25 57 47 60 50 3 3 50 41 105 85 55 43 107 86 116 95 9 8 25 22 36
30 43 34 178 145 183 150 3 3 27 24 55 45 61 49 77 63 137 111 25 22 58 48 73
59 14 11 36 30 47 43 12 12 26 22 30 22 5 0 19 11 32 25 13 14 26 25 30 25 6
0 35 23 61 47 65 61 621 469 688 504 12 7 24 15 27 18 9 12 200 131 209 131 5
0 11 3 13 8 3 7 105 72 114 72 2 0 21 10 42 23 90 57 472 252 512 262 3 1 23
9 45 19 145 65 434 166 580 203 11 2 27 7 35 10 8 3 22 7 30 8 8 1 26 5 40 8
108 26 240 53 300 62 56 8 116 18 132 20 15 3 82 11 198 22 68 7 614 11 624 5
5 -3 32 -7 60 -8 53 -3 149 -12 206 -20 19 -3 51 -7 70 -9 19 -2 35 -5 35 -5
0 -1 11 -3 25 -5 14 -1 41 -6 60 -10 19 -3 55 -10 80 -15 65 -12 99 -19 150
-30 25 -6 54 -12 65 -15 11 -2 56 -13 100 -25 44 -11 87 -22 96 -24 9 -2 49
-14 90 -26 41 -12 79 -23 84 -25 6 -1 17 -4 25 -7 48 -18 145 -51 154 -53 6
-1 20 -5 31 -9 11 -5 43 -16 70 -26 79 -29 286 -110 330 -130 82 -37 120 -53
132 -55 33 -8 542 -268 708 -363 105 -60 201 -115 215 -123 14 -8 27 -16 30
-19 3 -3 39 -25 80 -50 41 -24 143 -88 225 -142 193 -126 185 -121 201 -135 7
-7 15 -13 18 -13 9 0 110 -73 114 -82 2 -5 8 -8 14 -8 6 0 27 -13 48 -30 21
-16 43 -30 49 -30 6 0 11 -3 11 -7 0 -5 17 -19 38 -33 45 -30 170 -123 194
-144 9 -8 27 -20 40 -27 13 -6 25 -15 28 -19 3 -4 46 -38 95 -75 50 -38 92
-71 95 -75 3 -3 21 -17 40 -30 19 -13 37 -27 40 -30 3 -3 27 -24 55 -45 27
-22 55 -44 61 -50 6 -5 28 -23 50 -40 43 -34 323 -266 369 -306 17 -15 64 -56
105 -93 41 -36 78 -66 82 -66 4 0 5 66 2 148 -2 81 -6 177 -7 214 -1 38 -4 68
-7 68 -3 0 -6 15 -6 33 -1 17 -4 52 -7 77 -4 25 -9 63 -13 85 -3 22 -7 47 -8
55 -3 19 -17 100 -19 120 -2 8 -6 21 -10 28 -5 6 -6 12 -4 12 3 0 -4 37 -14
83 -23 96 -27 115 -33 142 -3 11 -12 45 -21 75 -8 30 -17 60 -18 65 -11 39
-62 195 -70 215 -6 14 -11 27 -12 30 -19 55 -110 257 -146 323 -21 37 -34 67
-31 67 4 0 -1 5 -10 11 -10 5 -18 14 -18 20 0 11 -52 93 -62 97 -5 2 -8 9 -8
16 0 6 -11 25 -25 41 -13 17 -46 57 -72 90 -62 78 -131 147 -218 218 -38 32
-79 65 -90 75 -11 9 -33 25 -48 35 -16 10 -36 25 -45 32 -9 8 -42 32 -72 54
-30 22 -59 44 -65 49 -43 36 -362 258 -527 367 -62 40 -118 78 -125 84 -7 6
-15 11 -18 11 -4 0 -26 14 -50 30 -24 17 -48 30 -54 30 -6 0 -11 5 -11 10 0 6
-7 10 -15 10 -8 0 -15 4 -15 9 0 5 -8 11 -17 14 -10 4 -35 16 -55 29 -83 52
-255 152 -327 190 -42 23 -80 44 -86 48 -5 5 -57 32 -115 61 -58 28 -112 58
-120 65 -8 7 -19 13 -23 13 -4 0 -51 21 -105 47 -53 26 -169 78 -257 116 -88
38 -169 73 -180 77 -27 12 -89 36 -95 36 -3 1 -22 9 -44 18 -21 9 -44 17 -51
17 -6 0 -15 3 -19 7 -3 4 -12 8 -19 9 -7 1 -43 14 -82 29 -38 14 -79 28 -89
30 -11 3 -47 14 -81 25 -34 11 -70 22 -81 25 -10 2 -59 16 -109 30 -49 15 -99
28 -110 30 -11 2 -48 11 -82 19 -34 9 -77 18 -94 21 -18 3 -35 8 -38 10 -4 2
-27 6 -52 9 -25 3 -52 7 -60 10 -7 3 -30 7 -49 10 -19 3 -45 8 -57 10 -12 3
-50 7 -84 11 -35 4 -66 8 -69 10 -3 2 -42 7 -85 10 -44 4 -100 9 -125 12 -49
5 -557 12 -562 8z m-5620 -3544 c135 -69 219 -246 187 -391 -10 -49 -46 -130
-56 -130 -5 0 -9 -6 -9 -13 0 -8 -19 -30 -42 -51 -118 -103 -270 -126 -406
-60 -223 107 -273 406 -96 580 110 109 285 136 422 65z"/>
<path d="M7379 7646 c-2 -2 -44 -7 -94 -11 -49 -3 -103 -8 -120 -10 -16 -3
-54 -7 -83 -10 -29 -4 -63 -8 -75 -11 -12 -2 -38 -7 -57 -10 -19 -3 -55 -10
-80 -16 -25 -5 -55 -12 -67 -14 -13 -2 -33 -6 -45 -8 -22 -4 -91 -21 -130 -31
-17 -5 -45 -12 -78 -20 -8 -2 -15 -4 -15 -5 0 -1 -12 -4 -27 -6 -16 -3 -48
-13 -73 -24 -25 -11 -45 -17 -45 -15 0 4 -67 -18 -160 -53 -8 -3 -20 -6 -26
-7 -6 -2 -28 -11 -49 -21 -20 -9 -43 -17 -51 -17 -8 0 -14 -4 -14 -9 0 -4 -7
-8 -15 -8 -8 0 -34 -9 -57 -19 -24 -11 -70 -32 -103 -46 -81 -36 -369 -178
-375 -185 -3 -3 -27 -18 -55 -32 -27 -14 -72 -39 -100 -56 -27 -17 -74 -45
-103 -62 -55 -32 -230 -143 -247 -157 -6 -4 -60 -42 -120 -83 -61 -41 -114
-78 -120 -82 -5 -5 -75 -57 -155 -115 -80 -59 -147 -110 -150 -113 -3 -3 -23
-19 -45 -36 -22 -16 -45 -33 -52 -39 -26 -21 -39 -32 -78 -60 -22 -17 -44 -35
-50 -41 -5 -5 -32 -28 -60 -49 -27 -22 -52 -42 -55 -45 -3 -3 -21 -17 -40 -32
-19 -14 -45 -35 -57 -47 -12 -12 -27 -21 -33 -21 -5 0 -10 -4 -10 -8 0 -4 -22
-24 -48 -45 -27 -20 -60 -47 -73 -59 -14 -13 -45 -39 -69 -58 -92 -74 -235
-193 -240 -199 -3 -4 -32 -28 -65 -53 -33 -25 -71 -55 -85 -67 -14 -11 -29
-24 -35 -29 -5 -4 -44 -34 -85 -67 -41 -33 -80 -64 -86 -70 -6 -5 -22 -17 -34
-25 -12 -8 -36 -27 -54 -42 -17 -15 -34 -28 -38 -28 -4 0 -13 -6 -20 -13 -20
-20 -257 -189 -318 -227 -30 -19 -61 -40 -68 -47 -6 -6 -21 -15 -32 -18 -11
-3 -20 -10 -20 -14 0 -4 -16 -13 -35 -21 -19 -8 -35 -17 -35 -20 0 -4 -21 -17
-47 -30 -27 -13 -50 -26 -53 -30 -7 -9 -296 -151 -312 -154 -7 -1 -18 -5 -24
-8 -9 -6 -122 -51 -134 -53 -3 -1 -25 -7 -50 -14 -44 -13 -60 -17 -70 -20 -3
0 -27 -7 -55 -15 -53 -16 -89 -24 -145 -32 -19 -3 -51 -8 -70 -11 -56 -9 -379
-9 -445 0 -33 5 -86 14 -118 22 -31 7 -57 10 -57 7 0 -3 -5 -1 -12 6 -7 7 -21
12 -33 12 -11 0 -58 14 -105 31 -47 16 -89 31 -95 33 -74 22 -285 128 -403
203 -28 18 -55 32 -58 32 -4 0 -10 3 -13 8 -5 8 -93 72 -149 108 -8 6 -23 17
-33 25 -10 8 -24 20 -31 25 -8 6 -24 19 -37 30 l-23 20 7 -162 c6 -156 11
-208 21 -224 2 -4 0 -10 -6 -14 -6 -4 -7 -13 -2 -23 5 -9 10 -37 11 -61 2 -24
5 -54 8 -65 2 -12 6 -34 9 -51 4 -28 19 -112 29 -163 17 -90 71 -287 105 -387
23 -66 44 -130 47 -142 3 -13 9 -23 14 -23 5 0 9 -11 9 -25 0 -14 5 -25 10
-25 6 0 10 -6 10 -14 0 -18 119 -250 131 -254 5 -2 9 -10 9 -18 0 -8 5 -14 10
-14 6 0 10 -5 10 -12 0 -12 95 -141 145 -197 163 -182 339 -289 540 -327 126
-24 514 -24 554 0 3 2 26 7 51 10 110 15 313 79 465 146 115 52 160 73 165 79
3 3 10 7 17 8 18 4 278 155 281 164 2 5 8 9 13 9 12 0 324 211 339 229 3 3 28
22 55 41 28 19 52 38 53 42 2 4 10 8 18 8 8 0 14 4 14 8 0 5 21 24 47 42 45
33 187 145 209 165 6 5 23 19 38 30 15 11 36 27 45 35 33 27 95 78 201 165
106 87 143 118 235 195 55 46 68 56 140 115 28 22 61 50 75 61 14 12 54 45 90
73 36 28 70 54 75 59 6 4 73 57 150 117 77 60 142 113 143 117 2 4 8 8 13 8 8
0 80 51 99 70 3 3 28 21 55 39 28 19 52 38 55 41 3 4 20 15 38 25 17 11 32 23
32 27 0 4 4 8 9 8 5 0 62 36 126 80 64 44 118 80 120 80 4 0 72 44 90 58 17
12 136 82 142 82 3 0 17 8 31 19 64 45 506 270 582 296 3 1 16 7 30 12 115 50
433 163 500 178 8 2 42 11 75 20 33 9 71 18 84 21 12 3 53 12 90 21 36 8 75
17 87 18 11 2 45 8 75 14 30 5 74 13 99 16 25 3 52 8 60 10 29 8 197 23 312
29 42 2 81 7 87 10 5 4 12 2 16 -3 3 -6 16 -7 28 -3 26 9 217 8 241 -1 11 -5
15 -3 10 5 -4 7 -3 8 5 4 6 -4 53 -10 104 -12 51 -3 112 -7 137 -9 25 -3 65
-7 90 -9 56 -6 127 -15 161 -21 14 -3 41 -7 60 -9 80 -11 449 -88 489 -103 8
-3 20 -7 26 -8 6 -2 38 -11 70 -20 33 -9 70 -19 84 -22 13 -2 27 -7 30 -11 3
-4 16 -9 30 -11 14 -1 53 -14 88 -27 34 -13 62 -21 62 -17 0 3 6 1 13 -4 12
-10 101 -42 122 -44 6 -1 19 -6 30 -12 11 -6 25 -12 32 -13 7 -1 27 -9 44 -18
18 -9 37 -16 42 -16 5 0 28 -9 51 -19 23 -11 84 -38 136 -59 181 -76 555 -257
566 -273 3 -5 14 -9 25 -9 10 0 19 -4 19 -9 0 -5 12 -14 28 -20 24 -9 69 -33
185 -99 20 -12 52 -31 71 -41 19 -11 52 -31 73 -44 21 -13 45 -27 53 -31 18
-8 29 -15 150 -90 52 -33 135 -85 183 -118 49 -32 91 -58 93 -58 3 0 10 -5 17
-11 12 -11 266 -186 296 -204 9 -5 18 -12 21 -15 3 -3 21 -17 40 -30 105 -71
304 -221 308 -232 2 -5 8 -8 13 -8 5 0 17 -6 26 -14 93 -76 133 -106 142 -106
6 0 11 -4 11 -8 0 -5 18 -21 41 -38 22 -16 51 -39 64 -52 13 -12 28 -22 34
-22 5 0 11 -3 13 -7 2 -5 28 -28 58 -53 30 -25 57 -47 60 -50 3 -3 28 -23 55
-44 58 -46 66 -53 120 -100 22 -19 60 -51 85 -72 53 -43 141 -119 180 -154 37
-33 63 -55 78 -64 10 -6 12 141 9 731 -3 704 -5 764 -19 779 -4 3 -4 12 -1 20
3 8 0 14 -7 14 -6 0 -9 4 -5 9 6 10 -4 38 -37 107 -23 47 -77 107 -158 174
-86 71 -135 114 -138 123 -2 4 -8 7 -14 7 -6 0 -16 6 -22 14 -6 7 -83 71 -171
142 -88 70 -162 130 -165 133 -3 3 -32 26 -65 51 -33 24 -66 50 -75 57 -8 6
-60 46 -115 87 -55 42 -104 79 -110 84 -5 4 -46 33 -90 65 -44 31 -85 61 -90
65 -10 8 -72 52 -150 106 -16 12 -32 24 -35 27 -3 3 -26 18 -52 33 -27 15 -48
33 -48 39 0 6 -3 8 -6 4 -3 -3 -15 3 -27 14 -11 10 -27 19 -34 19 -7 0 -13 3
-13 8 0 4 -20 18 -45 32 -25 14 -45 28 -45 32 0 5 -6 8 -13 8 -8 0 -22 9 -32
20 -10 11 -22 20 -27 20 -5 0 -42 23 -84 50 -41 28 -78 50 -80 50 -3 0 -32 18
-65 40 -32 23 -59 38 -59 34 0 -4 -8 0 -17 8 -23 20 -235 142 -393 226 -69 36
-304 156 -310 157 -3 1 -39 17 -80 37 -85 40 -165 76 -195 88 -11 4 -40 17
-65 28 -25 11 -72 31 -105 43 -33 13 -64 26 -70 30 -5 4 -26 12 -45 17 -19 6
-66 22 -105 37 -83 31 -294 100 -385 126 -36 10 -80 22 -97 28 -18 5 -33 8
-33 5 0 -3 -8 0 -18 5 -11 6 -30 12 -43 15 -13 3 -46 10 -74 16 -27 6 -59 13
-70 15 -11 2 -32 6 -47 9 -16 3 -39 8 -53 11 -14 3 -36 7 -50 10 -14 3 -35 7
-48 10 -13 3 -41 6 -63 9 -21 2 -46 6 -54 9 -14 6 -52 10 -190 23 -30 3 -73 8
-95 10 -48 7 -610 16 -616 10z m-5686 -3555 c105 -24 194 -97 244 -198 25 -51
28 -69 28 -153 0 -85 -3 -101 -29 -155 -17 -33 -49 -78 -71 -101 -45 -44 -136
-94 -171 -94 -13 0 -25 -4 -28 -8 -5 -8 -46 -7 -120 3 -140 19 -272 154 -294
302 -29 188 110 380 296 409 20 3 38 7 39 8 5 4 59 -3 106 -13z"/>
<path d="M7368 5304 c-2 -1 -43 -5 -93 -9 -133 -11 -146 -12 -195 -20 -25 -4
-54 -8 -65 -10 -92 -13 -123 -18 -140 -22 -11 -2 -29 -6 -40 -8 -59 -10 -94
-17 -130 -26 -22 -6 -47 -12 -55 -14 -8 -2 -35 -8 -60 -15 -40 -11 -60 -16
-95 -23 -5 -2 -15 -5 -20 -9 -6 -3 -27 -9 -48 -13 -20 -4 -39 -11 -42 -15 -4
-7 21 -21 45 -25 12 -2 118 -38 145 -50 82 -34 168 -68 175 -69 3 -1 22 -9 43
-19 20 -9 54 -24 75 -33 117 -51 421 -210 527 -275 17 -10 49 -28 73 -40 23
-12 42 -25 42 -30 0 -5 4 -9 10 -9 5 0 63 -35 127 -77 65 -43 125 -82 134 -88
51 -32 350 -247 390 -279 14 -11 36 -28 49 -36 13 -8 33 -25 46 -37 13 -13 26
-23 30 -23 3 0 21 -12 39 -27 18 -16 46 -38 61 -50 16 -12 39 -30 51 -40 33
-28 56 -46 88 -71 35 -27 68 -54 195 -159 53 -43 143 -116 200 -163 57 -47
114 -95 126 -107 13 -13 26 -23 29 -23 5 0 59 -44 165 -134 14 -11 45 -37 70
-56 25 -19 54 -43 65 -53 11 -10 45 -37 75 -60 30 -23 63 -49 73 -59 10 -10
21 -18 25 -18 4 0 23 -14 42 -30 40 -34 39 -34 103 -80 26 -19 70 -52 96 -72
27 -21 54 -38 60 -38 6 0 11 -3 11 -7 0 -5 25 -24 55 -43 30 -19 55 -38 55
-42 0 -5 5 -8 10 -8 8 0 141 -81 175 -107 6 -4 24 -15 40 -24 17 -10 55 -31
85 -48 30 -18 71 -39 90 -49 19 -9 38 -21 41 -25 3 -5 9 -8 13 -8 3 1 29 -10
56 -24 28 -14 50 -22 50 -18 0 5 4 3 8 -3 6 -10 236 -102 272 -109 8 -2 40
-10 70 -19 68 -19 193 -46 240 -51 19 -2 55 -7 80 -10 59 -7 272 -7 330 0 25
4 61 8 80 10 19 1 36 4 38 5 3 3 8 4 67 15 53 9 64 11 68 14 1 2 13 4 26 7 32
6 196 61 240 81 188 84 449 227 481 264 3 3 28 20 55 39 28 19 52 36 55 40 3
3 21 17 40 30 73 51 75 54 42 86 -16 16 -46 43 -67 59 -20 17 -51 44 -69 60
-18 17 -44 39 -58 50 -23 18 -87 72 -144 122 -12 10 -36 29 -54 43 -18 14 -40
32 -48 40 -8 8 -42 36 -76 62 -34 27 -70 56 -82 66 -11 9 -37 31 -58 47 -48
37 -156 122 -176 138 -114 90 -343 257 -350 257 -6 0 -10 4 -10 9 0 5 -24 24
-52 41 -29 18 -55 36 -58 39 -3 4 -41 32 -85 62 -44 30 -82 56 -85 59 -14 14
-102 70 -109 70 -5 0 -11 3 -13 8 -2 4 -30 25 -63 47 -33 22 -62 43 -63 48 -2
4 -8 5 -13 1 -5 -3 -9 0 -9 5 0 6 -4 11 -10 11 -5 0 -53 29 -107 65 -54 36
-103 65 -110 65 -6 0 -13 3 -15 8 -6 14 -324 199 -473 276 -33 16 -62 33 -65
36 -8 8 -154 78 -161 76 -3 0 -14 5 -23 13 -22 18 -44 29 -456 213 -14 6 -30
12 -36 14 -6 1 -27 9 -45 17 -118 54 -535 194 -659 221 -11 3 -24 7 -28 10 -5
3 -19 7 -33 10 -22 4 -87 19 -134 32 -11 3 -29 7 -40 9 -11 2 -31 6 -45 10
-14 3 -38 8 -54 10 -15 2 -36 7 -46 10 -10 3 -31 7 -46 9 -16 3 -74 12 -129
21 -55 9 -120 18 -145 21 -25 2 -63 6 -85 9 -94 12 -195 17 -427 19 -136 2
-249 2 -250 0z"/>
</g>
</svg>
